<svg width="44" height="44" viewBox="0 0 44 44" fill="none" xmlns="http://www.w3.org/2000/svg">
<g clip-path="url(#clip0_1_2)">
<path d="M22 44C34.1503 44 44 34.1503 44 22C44 9.84974 34.1503 0 22 0C9.84974 0 0 9.84974 0 22C0 34.1503 9.84974 44 22 44Z" fill="#6BDD8A"/>
<mask id="mask0_1_2" style="mask-type:luminance" maskUnits="userSpaceOnUse" x="12" y="15" width="20" height="14">
<path fill-rule="evenodd" clip-rule="evenodd" d="M12 15H32V28.4548H12V15Z" fill="white"/>
</mask>
<g mask="url(#mask0_1_2)">
<path fill-rule="evenodd" clip-rule="evenodd" d="M31.68 15.9745L31.0249 15.3194C30.8191 15.1133 30.5446 15 30.2516 15C29.9586 15 29.6839 15.1133 29.4781 15.3194L20.2727 24.5246L14.5213 18.773C14.3155 18.5673 14.0408 18.4538 13.7478 18.4538C13.455 18.4538 13.1805 18.5673 12.9745 18.773L12.3192 19.428C12.1132 19.6343 12 19.9091 12 20.2018C12 20.4946 12.1132 20.7693 12.3192 20.9753L18.8129 27.4686C18.8215 27.4809 18.8306 27.4922 18.8412 27.5026L19.4964 28.147C19.7023 28.3522 19.9769 28.4549 20.2722 28.4549H20.2756C20.5688 28.4549 20.8434 28.3522 21.049 28.147L21.7044 27.4969C21.715 27.4865 21.7239 27.4779 21.7293 27.4692L31.6799 17.5195C32.1067 17.0937 32.1067 16.4008 31.68 15.9745Z" fill="white"/>
</g>
</g>
<defs>
<clipPath id="clip0_1_2">
<rect width="44" height="44" fill="white"/>
</clipPath>
</defs>
</svg>
