<svg width="28" height="28" viewBox="0 0 28 28" fill="none" xmlns="http://www.w3.org/2000/svg">
<g clip-path="url(#clip0_2_715)">
<path d="M21.7799 9.66215L21.6824 9.47904C21.1016 8.38781 19.7413 7.97266 18.6501 8.55346C18.4037 8.68464 18.1921 8.85585 18.0182 9.05449C17.3538 8.25266 16.1935 7.99867 15.2391 8.50672C14.9799 8.64469 14.7594 8.82695 14.5808 9.03882C13.899 8.33532 12.7684 8.12876 11.8543 8.61532C11.6082 8.74631 11.3962 8.9202 11.2216 9.12318L9.95684 6.74705C9.376 5.65582 8.01569 5.24068 6.92454 5.82148C5.8334 6.40228 5.41812 7.76254 5.99897 8.85377L9.10095 14.6814C8.51916 14.4235 7.89751 14.2597 7.30836 14.3183C6.65097 14.3838 6.09741 14.7124 5.70737 15.2689C4.99008 16.2925 5.22614 17.7135 6.23362 18.4368L11.34 22.1032C11.4821 22.2027 14.8547 24.5223 17.8708 22.9169L21.3889 21.0443C24.1629 19.5677 25.2122 16.0978 23.7275 13.3086L21.7824 9.66084L21.7799 9.66215ZM20.6868 19.7249L17.1687 21.5976C14.996 22.754 12.2971 20.9469 12.1988 20.8798L7.10531 17.2228C6.75384 16.9704 6.67746 16.4889 6.93143 16.1266C7.07137 15.9268 7.2331 15.8279 7.45562 15.8055C8.3429 15.7165 9.82383 16.7749 10.5483 17.4625L11.1001 17.9882L12.0198 16.9841L7.31835 8.15149C7.12472 7.78771 7.2631 7.33435 7.62687 7.14072C7.99065 6.94709 8.44401 7.08547 8.63764 7.44925L12.6872 15.0572L12.6992 15.0508L14.0065 14.3549L14.0185 14.3486L12.2395 11.0063C12.0435 10.6381 12.1946 10.1273 12.5566 9.93456C12.9315 9.73503 13.4243 9.86831 13.6113 10.2197L14.3136 11.539L15.5308 13.8257L16.8501 13.1235L15.6329 10.8367C15.4392 10.473 15.5776 10.0196 15.9414 9.82597C16.3052 9.63233 16.7585 9.77072 16.9522 10.1345L17.7246 11.5857L18.4971 13.0369L19.8164 12.3347L19.0439 10.8835C18.8503 10.5197 18.9887 10.0663 19.3524 9.87271C19.7162 9.67907 20.1696 9.81746 20.3632 10.1812L20.8654 11.1247L20.8685 11.1231L22.4087 14.0113C23.5057 16.0725 22.7332 18.6356 20.6868 19.7249Z" fill="white"/>
</g>
<defs>
<clipPath id="clip0_2_715">
<rect width="20.2341" height="20.2341" fill="white" transform="translate(0 9.50732) rotate(-28.0258)"/>
</clipPath>
</defs>
</svg>
