<svg width="18" height="18" viewBox="0 0 18 18" fill="none" xmlns="http://www.w3.org/2000/svg">
<path fill-rule="evenodd" clip-rule="evenodd" d="M8.16675 2.33335C4.94509 2.33335 2.33341 4.94503 2.33341 8.16669C2.33341 11.3883 4.94509 14 8.16675 14C11.3884 14 14.0001 11.3883 14.0001 8.16669C14.0001 4.94503 11.3884 2.33335 8.16675 2.33335ZM0.666748 8.16669C0.666748 4.02455 4.02461 0.666687 8.16675 0.666687C12.3089 0.666687 15.6667 4.02455 15.6667 8.16669C15.6667 12.3088 12.3089 15.6667 8.16675 15.6667C4.02461 15.6667 0.666748 12.3088 0.666748 8.16669Z" fill="white"/>
<path fill-rule="evenodd" clip-rule="evenodd" d="M12.2857 12.2858C12.6111 11.9603 13.1388 11.9603 13.4642 12.2858L17.0892 15.9108C17.4147 16.2362 17.4147 16.7638 17.0892 17.0893C16.7638 17.4147 16.2361 17.4147 15.9107 17.0893L12.2857 13.4643C11.9603 13.1388 11.9603 12.6112 12.2857 12.2858Z" fill="white"/>
</svg>
